<svg width="40" height="40" viewBox="0 0 40 40" fill="none" xmlns="http://www.w3.org/2000/svg">
<mask id="mask0_1438_1461" style="mask-type:alpha" maskUnits="userSpaceOnUse" x="2" y="0" width="35" height="40">
<path d="M6.64714 39.7414C4.54126 39.7414 2.82361 38.0237 2.82361 35.9178C2.82361 33.8119 4.54126 32.0943 6.64714 32.0943C8.75302 32.0943 10.4707 33.8119 10.4707 35.9178C10.4707 38.0237 8.75302 39.7414 6.64714 39.7414ZM10.4942 1.7413H10.4707C6.24714 1.7413 2.82361 5.16483 2.82361 9.38837V12.3296C5.98831 10.9178 14.6118 9.38837 29.1765 9.38837C33.4001 9.38837 36.8236 5.96484 36.8236 1.7413V0.0942383C33.6589 0.917769 25.0471 1.7413 10.4942 1.7413ZM10.4707 16.9178C6.24714 16.9178 2.82361 20.3413 2.82361 24.5649V27.506C4.6589 26.0943 9.6589 24.5649 18.1177 24.5649C22.3413 24.5649 25.7648 21.1413 25.7648 16.9178V15.2707C23.9295 16.0943 18.9295 16.9178 10.4707 16.9178Z" fill="black"/>
</mask>
<g mask="url(#mask0_1438_1461)">
<rect x="-10.5264" y="-12.6316" width="63.1579" height="67.3685" fill="url(#paint0_linear_1438_1461)"/>
</g>
<defs>
<linearGradient id="paint0_linear_1438_1461" x1="8.16173" y1="2.25327" x2="24.1798" y2="18.148" gradientUnits="userSpaceOnUse">
<stop stop-color="#275AC7" stop-opacity="0.08"/>
<stop offset="0.313962" stop-color="#275AC7" stop-opacity="0.3"/>
<stop offset="1" stop-color="#275AC7" stop-opacity="0.08"/>
</linearGradient>
</defs>
</svg>
